<svg xmlns="http://www.w3.org/2000/svg" fill-rule="evenodd" stroke-linejoin="round" stroke-miterlimit="2" clip-rule="evenodd" viewBox="0 0 64 64"><path fill="#90b9f0" d="M 17.485743,38.079575 9.0004615,29.594294 10.414675,28.18008 c 0.749533,-0.749533 1.76706,-1.171676 2.828427,-1.170969 1.06066,0 2.078187,0.420729 2.828427,1.170969 l 5.656855,5.656854 17.677669,-17.677669 c 0,0 0.617304,0.617304 1.380272,1.380272 1.581091,1.581091 1.580384,4.144353 0,5.724737 l -7.037126,7.037126 2.12132,2.121321 v 4.24264 l 2.12132,2.121321 v 4.24264 l 2.121321,2.121321 v 4.242641 L 29.506558,59.999885 15.364422,45.85775 17.739594,43.482578 c -0.166877,-0.444063 -0.253851,-0.918532 -0.254558,-1.4029 7.07e-4,-1.669479 7.07e-4,-4.000103 7.07e-4,-4.000103 z"/><path fill="#6c8bb5" d="m 21.253208,51.746535 14.746712,-14.746712 1.991919,1.786859 0,4.24264 2.121321,2.121321 v 4.242641 L 29.506558,59.999885 Z"/><path fill="#242e3c" d="m 20.313763,50.807608 c -0.187383,0.187383 -0.441234,0.292742 -0.707107,0.292742 -0.265165,7.07e-4 -0.519723,-0.105359 -0.707106,-0.292742 -1.367545,-1.367544 -4.242641,-4.242641 -4.242641,-4.242641 -0.390323,-0.390323 -0.390323,-1.02389 0,-1.414213 l 1.954443,-1.954443 c -0.08344,-0.363453 -0.125865,-0.73822 -0.125865,-1.117229 l 0,-3.585031 -8.1925391,-8.19254 c -0.3903229,-0.390323 -0.3903229,-1.02389 0,-1.414213 0,0 0.635689,-0.635689 1.4142136,-1.414214 0.9376235,-0.937623 2.2097085,-1.464418 3.5355335,-1.465125 1.325826,7.07e-4 2.597911,0.527502 3.535534,1.465125 l 4.949748,4.949748 16.970562,-16.970563 c 0.390323,-0.390323 1.023891,-0.390323 1.414214,0 0,0 0.617304,0.617304 1.380272,1.380272 1.971414,1.971414 1.971414,5.167537 0,7.13895 l -6.330019,6.33002 1.414213,1.414214 c 0.187383,0.187383 0.293449,0.441942 0.292742,0.707107 l 0,3.828276 1.828578,1.828578 c 0.187384,0.187383 0.29345,0.441942 0.292743,0.707107 l 0,3.828276 1.828578,1.828578 c 0.187383,0.187383 0.293449,0.441942 0.292742,0.707107 v 4.24264 c 7.07e-4,0.265166 -0.105359,0.519724 -0.292742,0.707107 L 30.213258,60.707103 c -0.390323,0.390323 -1.02389,0.390323 -1.414213,0 l -4.242641,-4.242641 c -0.187383,-0.187383 -0.293449,-0.441941 -0.292742,-0.707106 0,-0.265873 0.105359,-0.519724 0.292742,-0.707107 0.187383,-0.187384 0.441942,-0.29345 0.707107,-0.292742 0.265165,-7.08e-4 0.519723,0.105358 0.707106,0.292742 1.207032,1.207031 3.535534,3.535534 3.535534,3.535534 L 39.112904,48.97903 V 45.565118 L 37.284326,43.73654 c -0.187383,-0.187383 -0.293449,-0.441942 -0.292742,-0.707107 l 0,-3.828276 -1.828578,-1.828578 c -0.187384,-0.187383 -0.29345,-0.441942 -0.292743,-0.707107 l 0,-3.828276 -1.828578,-1.828578 c -0.390323,-0.390323 -0.390323,-1.02389 0,-1.414213 0,0 7.037127,-7.037127 7.037127,-7.037127 1.190768,-1.190768 1.190061,-3.120462 0,-4.310523 L 39.405646,17.573589 22.435084,34.544152 c -0.390323,0.390323 -1.023891,0.390323 -1.414214,0 0,0 -5.656854,-5.656854 -5.656854,-5.656854 -0.562857,-0.562857 -1.325825,-0.878934 -2.121321,-0.878227 -0.795495,-7.07e-4 -1.558463,0.31537 -2.12132,0.878227 l -0.707107,0.707107 7.778175,7.778174 c 0.187383,0.187384 0.293449,0.441942 0.292742,0.707107 0,0 0,2.330624 7.07e-4,4.000103 -7.07e-4,0.362746 0.06505,0.718421 0.190212,1.051468 0.137179,0.367695 0.04738,0.781353 -0.22981,1.058539 l -1.668065,1.668065 3.535534,3.535533 c 0.187383,0.187384 0.293449,0.441942 0.292742,0.707107 7.07e-4,0.265165 -0.105359,0.519724 -0.292742,0.707107 z"/><path fill="#242e3c" d="m 23.431999,52.931999 a 1,1 0 0 1 -1,1 1,1 0 0 1 -1,-1 1,1 0 0 1 1,-1 1,1 0 0 1 1,1 z"/><path fill="#c6d4e8" d="m -8.1926619,58.689667 a 0.9999975,0.9999975 0 0 1 -0.9999975,0.999997 0.9999975,0.9999975 0 0 1 -0.9999976,-0.999997 0.9999975,0.9999975 0 0 1 0.9999976,-0.999998 0.9999975,0.9999975 0 0 1 0.9999975,0.999998 z" transform="rotate(-45)"/><path fill="#c6d4e8" d="m 29.879112,54.535322 2.828441,-2.828441 c 0.390215,-0.390215 0.390304,-1.023872 -1.9e-5,-1.414195 -0.390323,-0.390323 -1.02398,-0.390234 -1.414195,-1.9e-5 l -2.828441,2.828441 c -0.390304,0.390304 -0.390304,1.023871 2e-5,1.414194 0.390323,0.390324 1.02389,0.390324 1.414194,2e-5 z"/><path fill="#f05e4d" d="m 32.219824,18.249391 c 0.778666,-3.017779 3.52,-5.249779 6.779556,-5.249779 3.863112,0 7.000001,3.136889 7.000001,7.000001 0,2.935111 -1.810667,5.451556 -4.375112,6.490667 -0.512,0.207112 -0.759111,0.791112 -0.551111,1.302223 0.207111,0.512 0.790222,0.759111 1.302222,0.551111 3.29689,-1.336 5.624001,-4.570667 5.624001,-8.344001 0,-4.967112 -4.032889,-9.000001 -9.000001,-9.000001 -4.190223,0 -7.715557,2.870222 -8.715557,6.750223 -0.137777,0.534222 0.184,1.08 0.718223,1.217778 0.534222,0.137778 1.08,-0.184 1.217778,-0.718222 z"/><path fill="#f05e4d" d="m 27.998627,19.99861 c 0,-6.070651 4.929322,-10.9999725 10.999973,-10.9999725 6.070651,0 10.999972,4.9293215 10.999972,10.9999725 0,5.446653 -3.966656,9.973308 -9.16531,10.847973 -0.545332,0.09067 -0.911998,0.606665 -0.821331,1.151997 0.092,0.543999 0.607998,0.911998 1.151997,0.819998 6.145318,-1.033331 10.834639,-6.382651 10.834639,-12.819968 0,-7.174649 -5.825318,-12.9999675 -12.999967,-12.9999675 -7.174649,0 -12.999968,5.8253185 -12.999968,12.9999675 0,0.551999 0.447999,0.999997 0.999998,0.999997 0.551999,0 0.999997,-0.447998 0.999997,-0.999997 z"/><path fill="#f05e4d" d="m 24,20 c 0,-8.279 6.721,-15 15,-15 8.279,0 15,6.721 15,15 0,7.644 -5.729,13.96 -13.124,14.884 -0.548,0.068 -0.937,0.568 -0.868,1.116 0.068,0.548 0.568,0.937 1.116,0.868 C 49.505,35.821 56,28.663 56,20 56,10.617 48.383,3 39,3 29.617,3 22,10.617 22,20 c 0,0.552 0.448,1 1,1 0.552,0 1,-0.448 1,-1 z"/></svg>