<svg xmlns="http://www.w3.org/2000/svg" data-name="Layer 1" viewBox="0 0 64 64"><path fill="#3b4551" d="M14.72 21.22H8.63a1.53 1.53 0 0 1 0-3.06h8.65a19.41 19.41 0 0 0-2.56 3.06zM3 26.42h9.22a19.05 19.05 0 0 0-.66 3.06H3a1.53 1.53 0 1 1 0-3.06zm8.61 8.26a19 19 0 0 0 .69 3.06H3a1.53 1.53 0 1 1 0-3.06zM17.45 46H8.63a1.53 1.53 0 1 1 0-3.06h6.2A19.35 19.35 0 0 0 17.45 46zm32.92-22.93v-1.85h-3.61a19.41 19.41 0 0 0-2.56-3.06h6.17v-2l6.53 3.47zM56 31.33v-1.85h-6.11a19.05 19.05 0 0 0-.66-3.06H56v-2l6.53 3.47zm0 8.27v-1.86h-6.81a19 19 0 0 0 .69-3.06H56v-2l6.53 3.47zm-5.63 8.26V46H44a19.35 19.35 0 0 0 2.62-3.06h3.72v-2l6.53 3.47z"/><path fill="#36c" d="M48.18 29.48a17.53 17.53 0 0 0-3.51-8.26 17.78 17.78 0 0 0-3-3.06 17.59 17.59 0 0 0-21.78 0A17.7 17.7 0 0 0 14 26.42a17.55 17.55 0 0 0-.88 5.58 17.72 17.72 0 0 0 .2 2.68 17.54 17.54 0 0 0 3.62 8.26A17.77 17.77 0 0 0 20.06 46a17.59 17.59 0 0 0 21.37 0 17.7 17.7 0 0 0 6-8.26 17.51 17.51 0 0 0 .76-3.06 17.78 17.78 0 0 0 0-5.2ZM24.87 40.39l-.33-.23 1.08-3 .57.38a7.43 7.43 0 0 0 4 1.2c1.79 0 3-1 3-2.41s-.89-2.2-3.06-3.08c-2.74-1.07-5.28-2.51-5.28-5.68a5.39 5.39 0 0 1 4.53-5.26v-3.15h2.92v2.94a8.32 8.32 0 0 1 3.7 1.09l.39.23-1.13 3-.54-.31a6.72 6.72 0 0 0-3.51-.95c-2 0-2.65 1.1-2.65 2 0 1.17.79 1.85 3.39 2.93 3.49 1.42 5 3.21 5 6a5.46 5.46 0 0 1-1.34 3.59 6.26 6.26 0 0 1-3.4 1.94v3.21h-3v-3.04a9 9 0 0 1-4.34-1.4Z"/></svg>