<svg xmlns="http://www.w3.org/2000/svg" viewBox="0 0 128 128"><path fill="#5c8eff" d="M84.27,46.28V94.44a1.92,1.92,0,0,1-1.92,1.92H4.43a1.92,1.92,0,0,1-1.92-1.92V43.39a1.912,1.912,0,0,1,1.92-1.91H79.47A4.8,4.8,0,0,1,84.27,46.28Z"/><path fill="#f7ecda" d="M22.41 63.241v1.642h2.751a2.052 2.052 0 0 1 0 4.1H22.41v2.667a1.885 1.885 0 0 1-2.016 2.052 1.886 1.886 0 0 1-2.018-2.052V61.189a1.886 1.886 0 0 1 2.018-2.052H27.36a2.052 2.052 0 0 1 0 4.1zM34.607 68.37v3.283a2.018 2.018 0 1 1-4.035 0V61.189a1.886 1.886 0 0 1 2.018-2.052h3.85c3.851 0 5.5 1.847 5.5 4.617a3.593 3.593 0 0 1-2.017 3.385v.2l1.834 2.463a4.055 4.055 0 0 1 .732 1.846 1.939 1.939 0 0 1-2.2 2.052 2.472 2.472 0 0 1-1.65-1.026L35.707 68.37zm1.833-3.487a1.138 1.138 0 1 0 0-2.258H34.607v2.258zM48 63.241v1.231h3.484a1.847 1.847 0 0 1 0 3.693H48V69.4H53.13a2.052 2.052 0 0 1 0 4.1H45.979a1.886 1.886 0 0 1-2.018-2.052V61.189a1.886 1.886 0 0 1 2.018-2.052h6.967a2.052 2.052 0 0 1 0 4.1zM60.559 63.241v1.231h3.484a1.847 1.847 0 0 1 0 3.693H60.559V69.4h5.135a2.052 2.052 0 0 1 0 4.1H58.543a1.886 1.886 0 0 1-2.018-2.052V61.189a1.886 1.886 0 0 1 2.018-2.052h6.966a2.052 2.052 0 0 1 0 4.1z"/><path fill="#4856b5" d="M125.48,91.42c-.02,2.69-.5,4.94-3.19,4.94H89.63a1.805,1.805,0,0,1-1.8-1.8V56.99a1.8,1.8,0,0,1,1.8-1.79h13.23a4.5,4.5,0,0,1,4.19,2.87s.29.82.75,2.07c1.18,3.23,3.45,9.34,4.6,11.75.68,1.42,3.44,2.94,5.26,3.71a13.149,13.149,0,0,1,5.22,3.54h.01a8.647,8.647,0,0,1,1.74,3.48,33.6,33.6,0,0,1,.66,4.67C125.42,88.96,125.48,90.54,125.48,91.42Z"/><path fill="#3a417c" d="M112.4,71.89H101.14a1.991,1.991,0,0,1-2.04-1.94V62.07a1.983,1.983,0,0,1,2.04-1.93h6.66C108.98,63.37,111.25,69.48,112.4,71.89Z"/><path fill="#f7ecda" d="M125.29,87.29h-.01a5.983,5.983,0,0,1-4.85-2.45,4.99,4.99,0,0,1-.98-3.92c.51-1.87,3.24-1.79,3.43-1.78h.01a8.647,8.647,0,0,1,1.74,3.48A33.6,33.6,0,0,1,125.29,87.29Z"/><circle cx="108.376" cy="95.423" r="7.239" fill="#3a417c"/><circle cx="108.376" cy="95.423" r="2.152" fill="#ffb45a"/><path fill="#4856b5" d="M84.27,91.56v2.88a1.92,1.92,0,0,1-1.92,1.92H4.43a1.92,1.92,0,0,1-1.92-1.92V91.56Z"/><circle cx="69.944" cy="95.423" r="7.239" fill="#3a417c"/><circle cx="69.944" cy="95.423" r="2.152" fill="#ffb45a"/><circle cx="17.542" cy="95.423" r="7.239" fill="#3a417c"/><circle cx="17.542" cy="95.423" r="2.152" fill="#ffb45a"/><path fill="#4856b5" d="M84.563 33.5h-45.5a1.5 1.5 0 0 1 0-3h45.5a1.5 1.5 0 0 1 0 3zM33.209 33.5H29.4a1.5 1.5 0 0 1 0-3h3.813a1.5 1.5 0 0 1 0 3zM60.172 23.5h-45.5a1.5 1.5 0 1 1 0-3h45.5a1.5 1.5 0 0 1 0 3zM8.817 23.5H5.005a1.5 1.5 0 1 1 0-3H8.817a1.5 1.5 0 0 1 0 3z"/></svg>