<svg xmlns="http://www.w3.org/2000/svg" enable-background="new 0 0 3676.259 3939.746" viewBox="0 0 3676.259 3939.746"><path fill="#79a1e8" d="M367.719 1934.426c-190.211 190.986-190.855 418.876 240.694 720.285 489.793 342.088 1609.525-384.263 2040.755-202.776s1470.627 4.37 816.486-1010.854C2952.464 644.612 3268.357 114.237 2445.239 9.467S798.784 692.392 829.408 1241.893s-284.958 515.083-461.689 692.533z"/><path fill="#473cba" d="M2349.432 2979.67H358.644c-107.992 0-195.536-87.544-195.536-195.536V786.964c0-107.992 87.544-195.536 195.536-195.536h1990.788c107.991 0 195.536 87.544 195.536 195.536v1997.17c0 107.992-87.545 195.536-195.536 195.536z"/><path fill="#d7ecf9" d="M2217.106 2979.67H226.318c-107.992 0-195.536-87.544-195.536-195.536V786.964c0-107.992 87.544-195.536 195.536-195.536h1990.788c107.992 0 195.536 87.544 195.536 195.536v1997.17c0 107.992-87.544 195.536-195.536 195.536z"/><path fill="#b3d4e5" d="M2217.106 591.428h-45.394L30.783 2732.359v51.775c0 107.992 87.544 195.538 195.536 195.538h1990.788c107.991 0 195.536-87.545 195.536-195.538V786.964c-.001-107.992-87.545-195.536-195.537-195.536z"/><path fill="#f9d015" d="M2412.642 786.964c0-107.991-87.545-195.536-195.536-195.536H226.318c-107.991 0-195.536 87.545-195.536 195.536v130.197h2381.86V786.964z"/><path fill="#fbb03b" d="M2412.642 786.964c0-107.992-87.544-195.536-195.536-195.536h-45.394l-325.733 325.733h566.663V786.964z"/><path fill="#4b31aa" d="M2349.429 560.647H226.321C101.528 560.647 0 662.167 0 786.96v1997.173c0 124.793 101.528 226.313 226.321 226.313h2123.108c124.793 0 226.321-101.521 226.321-226.313V786.96c0-124.793-101.529-226.313-226.321-226.313zM61.559 786.96c0-90.842 73.912-164.755 164.762-164.755h1990.786c90.843 0 164.755 73.912 164.755 164.755v99.424H61.559V786.96zm164.762 2161.928c-90.85 0-164.762-73.912-164.762-164.755V947.943h2320.303v1836.191c0 90.842-73.912 164.755-164.755 164.755H226.321zm2287.87-164.755c0 82.404-60.885 150.678-139.996 162.686 42.634-41.181 69.225-98.87 69.225-162.686V786.96c0-63.818-26.591-121.507-69.225-162.687 79.111 12.007 139.996 80.276 139.996 162.687v1997.173z"/><path fill="#4b31aa" d="M262.353 692.977c-35.213 0-63.858 28.645-63.858 63.858 0 35.213 28.645 63.858 63.858 63.858s63.858-28.645 63.858-63.858c0-35.213-28.646-63.858-63.858-63.858zM460.84 692.977c-35.213 0-63.858 28.645-63.858 63.858 0 35.213 28.645 63.858 63.858 63.858s63.858-28.645 63.858-63.858c0-35.213-28.645-63.858-63.858-63.858zM659.327 692.977c-35.213 0-63.858 28.645-63.858 63.858 0 35.213 28.645 63.858 63.858 63.858 35.213 0 63.865-28.645 63.865-63.858.001-35.213-28.652-63.858-63.865-63.858z"/><path fill="#79a1e8" d="M1180.573 1762.113H421.351c-73.662 0-133.377-59.715-133.377-133.377s59.715-133.377 133.377-133.377h759.222c73.662 0 133.377 59.715 133.377 133.377s-59.715 133.377-133.377 133.377z"/><path fill="#4b31aa" d="M1180.576 1792.892H421.351c-90.512 0-164.154-73.642-164.154-164.154 0-90.519 73.642-164.161 164.154-164.161h759.224c90.512 0 164.154 73.642 164.154 164.161 0 90.512-73.642 164.154-164.153 164.154zm-759.225-266.756c-56.569 0-102.595 46.026-102.595 102.603 0 56.569 46.026 102.595 102.595 102.595h759.224c56.569 0 102.595-46.026 102.595-102.595 0-56.576-46.026-102.603-102.595-102.603H421.351z"/><path fill="#79a1e8" d="M1180.573 2141.724H421.351c-73.662 0-133.377-59.715-133.377-133.377s59.715-133.377 133.377-133.377h759.222c73.662 0 133.377 59.715 133.377 133.377s-59.715 133.377-133.377 133.377z"/><path fill="#4b31aa" d="M1180.576 2172.5H421.351c-90.512 0-164.154-73.642-164.154-164.153s73.642-164.154 164.154-164.154h759.224c90.512 0 164.154 73.642 164.154 164.154s-73.642 164.153-164.153 164.153zm-759.225-266.748c-56.569 0-102.595 46.026-102.595 102.595s46.026 102.595 102.595 102.595h759.224c56.569 0 102.595-46.026 102.595-102.595s-46.026-102.595-102.595-102.595H421.351z"/><path fill="#f7931e" d="M1186.973 2457.695h-392.41c-55.27 0-100.075-44.805-100.075-100.074 0-55.27 44.805-100.075 100.075-100.075h392.41c55.27 0 100.075 44.805 100.075 100.075 0 55.269-44.805 100.074-100.075 100.074z"/><path fill="#4b31aa" d="M1186.97 2488.477H794.565c-72.154 0-130.857-58.703-130.857-130.857s58.703-130.857 130.857-130.857h392.406c72.154 0 130.857 58.703 130.857 130.857-.001 72.153-58.704 130.857-130.858 130.857zm-392.405-200.156c-38.211 0-69.298 31.087-69.298 69.298s31.087 69.299 69.298 69.299h392.406c38.211 0 69.298-31.087 69.298-69.299 0-38.211-31.087-69.298-69.298-69.298H794.565zM883.04 1662.08H426.484c-16.998 0-30.779-13.781-30.779-30.779 0-16.998 13.782-30.779 30.779-30.779H883.04c16.998 0 30.779 13.781 30.779 30.779.001 16.998-13.781 30.779-30.779 30.779zM430.97 2041.05h-4.486c-16.998 0-30.779-13.781-30.779-30.779 0-16.998 13.782-30.779 30.779-30.779h4.486c16.998 0 30.779 13.781 30.779 30.779 0 16.997-13.781 30.779-30.779 30.779zM554.598 2041.05h-4.486c-16.998 0-30.779-13.781-30.779-30.779 0-16.998 13.782-30.779 30.779-30.779h4.486c16.998 0 30.779 13.781 30.779 30.779 0 16.997-13.781 30.779-30.779 30.779zM678.233 2041.05h-4.494c-16.998 0-30.779-13.781-30.779-30.779 0-16.998 13.782-30.779 30.779-30.779h4.494c16.998 0 30.779 13.781 30.779 30.779.001 16.997-13.781 30.779-30.779 30.779zM801.861 2041.05h-4.494c-16.998 0-30.779-13.781-30.779-30.779 0-16.998 13.781-30.779 30.779-30.779h4.494c16.998 0 30.779 13.781 30.779 30.779.001 16.997-13.781 30.779-30.779 30.779zM925.49 2041.05h-4.486c-16.998 0-30.779-13.781-30.779-30.779 0-16.998 13.781-30.779 30.779-30.779h4.486c16.998 0 30.779 13.781 30.779 30.779 0 16.997-13.782 30.779-30.779 30.779zM1049.118 2041.05h-4.486c-16.998 0-30.779-13.781-30.779-30.779 0-16.998 13.781-30.779 30.779-30.779h4.486c16.998 0 30.779 13.781 30.779 30.779 0 16.997-13.782 30.779-30.779 30.779z"/><ellipse cx="2534.441" cy="3868.682" fill="#473cba" rx="623.28" ry="71.064"/><ellipse cx="1266.289" cy="3339.55" fill="#473cba" rx="1214.289" ry="61.559"/><path fill="#473cba" d="M3139.033 3406.436H2121.872c-85.635 0-155.055-69.421-155.055-155.055V2129.574h1327.272v1121.807c0 85.634-69.421 155.055-155.056 155.055z"/><path fill="#fff" d="M2928.158 3406.436H1910.997c-85.635 0-155.055-69.421-155.055-155.055V2129.574h1327.272v1121.807c0 85.634-69.421 155.055-155.056 155.055z"/><path fill="#cfddf7" d="M2875.323 2129.574 1755.942 3248.956v2.425c0 85.633 69.421 155.055 155.055 155.055h1017.161c85.634 0 155.054-69.422 155.054-155.055V2129.574h-207.889z"/><path fill="#473cba" d="M2523.108 1184.922c-257.527 0-466.292 208.766-466.293 466.291v478.36h213.619v-475.596c0-139.547 113.125-252.673 252.673-252.673 139.547 0 252.673 113.126 252.673 252.673v475.595h213.619v-478.36c.001-257.524-208.765-466.29-466.291-466.29z"/><path fill="#fbb03b" d="M2464.121 1184.922c-257.526 0-466.292 208.766-466.293 466.291v478.36h213.619v-475.596c0-139.548 113.125-252.673 252.673-252.673 139.547 0 252.673 113.126 252.673 252.673v475.595h213.619v-478.36c.001-257.524-208.765-466.29-466.291-466.29z"/><path fill="#4b31aa" d="M3139.034 3437.216c102.467 0 185.833-83.365 185.833-185.833V2129.57c0-16.998-13.781-30.779-30.779-30.779h-273.91v-447.577c0-274.09-222.984-497.075-497.067-497.075h-58.989c-274.09 0-497.075 222.984-497.075 497.075v447.577h-211.104c-16.998 0-30.779 13.782-30.779 30.779v1121.813c0 102.468 83.365 185.833 185.833 185.833h1228.037zm-645.203-2220.683c226.323 15.337 405.8 204.528 405.8 434.681v447.577h-152.055V1653.98c0-116.578-69.581-219.761-171.574-260.393-26.53-10.569-65.913-24.135-111.879-23.06-156.251 3.653-283.453 127.16-283.453 283.453v444.811h-152.062v-447.577c0-232.971 183.871-423.483 414.115-434.681h51.108zm-192.615 437.447c0-112.345 83.95-205.399 192.401-219.875 108.451 14.477 192.4 107.53 192.4 219.875v444.811h-384.801V1653.98zm751.222 506.37v1091.033c0 68.525-55.75 124.274-124.282 124.274H1910.997c-68.524 0-124.274-55.75-124.274-124.274V2160.35h1265.715zm210.87 1091.033c0 68.525-55.75 124.274-124.274 124.274h-72.844c29.695-32.949 47.805-76.533 47.805-124.274V2160.35h149.313v1091.033z"/><path fill="#f9d015" d="M2748.998 2876.001h-667.363c-91.945 0-166.481-74.536-166.481-166.481s74.536-166.481 166.481-166.481h667.363c91.945 0 166.481 74.536 166.481 166.481s-74.536 166.481-166.481 166.481z"/><path fill="#fbb03b" d="M2748.998 2543.037h-287.139l-332.962 332.964h620.102c91.945 0 166.482-74.536 166.482-166.483-.001-91.943-74.538-166.481-166.483-166.481z"/><path fill="#4b31aa" d="M2748.996 2906.777h-667.36c-108.772 0-197.262-88.49-197.262-197.255 0-108.772 88.49-197.262 197.262-197.262h667.36c108.772 0 197.262 88.49 197.262 197.262 0 108.765-88.49 197.255-197.262 197.255zm-667.36-332.959c-74.829 0-135.704 60.875-135.704 135.704 0 74.822 60.875 135.696 135.704 135.696h667.36c74.829 0 135.704-60.875 135.704-135.696 0-74.829-60.875-135.704-135.704-135.704h-667.36z"/><path fill="#4b31aa" d="m2163.401 2720.846-15.358-8.867 15.358-8.867c11.039-6.372 14.826-20.492 8.446-31.531-6.365-11.039-20.477-14.833-31.531-8.446l-15.352 8.863v-17.73c0-12.752-10.333-23.084-23.084-23.084s-23.084 10.332-23.084 23.084v17.73l-15.352-8.863c-11.046-6.387-25.151-2.593-31.531 8.446-6.38 11.039-2.592 25.158 8.446 31.531l15.358 8.867-15.358 8.867c-11.039 6.372-14.826 20.492-8.446 31.531 4.276 7.409 12.031 11.55 20.011 11.55a22.93 22.93 0 0 0 11.52-3.104l15.352-8.863v17.73c0 12.752 10.333 23.084 23.084 23.084s23.084-10.333 23.084-23.084v-17.73l15.352 8.863a22.938 22.938 0 0 0 11.52 3.104c7.98 0 15.735-4.14 20.011-11.55 6.38-11.039 2.592-25.158-8.446-31.531zM2371.536 2720.846l-15.358-8.867 15.358-8.867c11.039-6.372 14.826-20.492 8.446-31.531-6.365-11.039-20.477-14.833-31.531-8.446l-15.352 8.863v-17.73c0-12.752-10.333-23.084-23.084-23.084s-23.084 10.332-23.084 23.084v17.73l-15.352-8.863c-11.046-6.387-25.151-2.593-31.531 8.446-6.38 11.039-2.593 25.158 8.446 31.531l15.358 8.867-15.358 8.867c-11.039 6.372-14.826 20.492-8.446 31.531 4.276 7.409 12.031 11.55 20.011 11.55a22.93 22.93 0 0 0 11.52-3.104l15.352-8.863v17.73c0 12.752 10.333 23.084 23.084 23.084s23.084-10.333 23.084-23.084v-17.73l15.352 8.863a22.94 22.94 0 0 0 11.52 3.104c7.98 0 15.735-4.14 20.011-11.55 6.38-11.039 2.593-25.158-8.446-31.531zM2579.672 2720.846l-15.358-8.867 15.358-8.867c11.039-6.372 14.826-20.492 8.446-31.531-6.365-11.039-20.477-14.833-31.531-8.446l-15.352 8.863v-17.73c0-12.752-10.333-23.084-23.084-23.084s-23.084 10.332-23.084 23.084v17.73l-15.352-8.863c-11.046-6.387-25.151-2.593-31.531 8.446-6.38 11.039-2.593 25.158 8.446 31.531l15.358 8.867-15.358 8.867c-11.039 6.372-14.826 20.492-8.446 31.531 4.276 7.409 12.031 11.55 20.011 11.55a22.93 22.93 0 0 0 11.52-3.104l15.352-8.863v17.73c0 12.752 10.333 23.084 23.084 23.084s23.084-10.333 23.084-23.084v-17.73l15.352 8.863a22.94 22.94 0 0 0 11.52 3.104c7.98 0 15.735-4.14 20.011-11.55 6.38-11.039 2.593-25.158-8.446-31.531zM2787.808 2720.846l-15.358-8.867 15.358-8.867c11.039-6.372 14.826-20.492 8.446-31.531-6.365-11.039-20.477-14.833-31.531-8.446l-15.352 8.863v-17.73c0-12.752-10.332-23.084-23.084-23.084-12.752 0-23.084 10.332-23.084 23.084v17.73l-15.352-8.863c-11.046-6.387-25.151-2.593-31.531 8.446-6.38 11.039-2.592 25.158 8.446 31.531l15.358 8.867-15.358 8.867c-11.039 6.372-14.826 20.492-8.446 31.531 4.276 7.409 12.031 11.55 20.011 11.55a22.93 22.93 0 0 0 11.52-3.104l15.352-8.863v17.73c0 12.752 10.333 23.084 23.084 23.084 12.752 0 23.084-10.333 23.084-23.084v-17.73l15.352 8.863a22.94 22.94 0 0 0 11.52 3.104c7.98 0 15.735-4.14 20.011-11.55 6.38-11.039 2.593-25.158-8.446-31.531z"/></svg>